<?xml version="1.0" standalone="no"?>
<!DOCTYPE svg PUBLIC "-//W3C//DTD SVG 20010904//EN"
 "http://www.w3.org/TR/2001/REC-SVG-20010904/DTD/svg10.dtd">
<svg version="1.0" xmlns="http://www.w3.org/2000/svg"
 width="181.000000pt" height="230.000000pt" viewBox="0 0 181.000000 230.000000"
 preserveAspectRatio="xMidYMid meet">

<g transform="translate(0.000000,230.000000) scale(0.100000,-0.100000)"
fill="#f2f2f2" stroke="none">
<path d="M917 2213 c-4 -3 -7 -267 -7 -585 0 -493 -2 -579 -14 -584 -8 -3 -34
8 -58 25 -140 101 -166 120 -194 136 -31 18 -32 18 -55 -4 -19 -18 -93 -61
-105 -61 -2 0 -4 17 -6 38 l-3 37 -151 3 c-180 3 -164 21 -164 -179 l0 -137
-34 -26 c-19 -14 -39 -26 -44 -26 -5 0 -12 -10 -16 -23 -9 -35 -7 -730 3 -746
27 -42 31 8 31 364 0 363 0 364 22 376 12 6 47 30 78 53 32 22 67 48 80 56 12
8 41 29 64 46 22 17 70 51 106 75 36 25 88 61 116 81 l51 36 29 -19 c36 -23
53 -35 115 -79 27 -19 72 -51 99 -70 l50 -35 -3 -415 -2 -415 -55 0 -55 0 -1
193 c0 112 -5 197 -11 203 -6 6 -76 8 -174 7 l-164 -3 0 -230 c0 -198 2 -230
15 -230 13 0 15 31 18 205 1 112 6 208 11 213 12 12 251 14 259 2 4 -5 9 -102
12 -215 l5 -205 80 -3 c66 -2 82 0 92 14 10 14 13 112 13 426 0 337 2 408 14
408 7 0 34 -16 59 -35 25 -19 49 -35 54 -35 4 -1 18 -9 31 -19 l22 -19 0 -355
c0 -196 3 -362 6 -371 5 -14 41 -16 298 -16 166 0 297 4 306 10 13 8 15 138
18 1055 2 722 -1 1052 -8 1065 -10 19 -22 20 -419 20 -224 0 -411 -3 -414 -7z
m790 -1066 l-2 -1012 -255 0 -255 0 0 280 0 280 45 5 45 5 0 170 0 170 -99 3
c-64 2 -103 -1 -112 -9 -8 -7 -14 -31 -14 -60 0 -27 -4 -49 -8 -49 -5 0 -30
14 -55 31 l-47 31 0 589 0 589 363 2 c199 2 370 -1 379 -5 17 -7 18 -67 15
-1020z m-1269 -13 c3 -26 -3 -36 -35 -61 -76 -60 -175 -123 -184 -118 -14 10
-11 202 4 209 6 2 57 4 112 3 l100 -2 3 -31z m787 -254 c0 -104 -2 -125 -15
-125 -10 0 -16 12 -18 32 -2 23 -15 41 -48 68 -42 35 -44 39 -44 89 0 29 3 56
7 60 4 4 32 6 63 4 l55 -3 0 -125z"/>
<path d="M1067 1974 c-4 -4 -7 -78 -7 -164 0 -123 3 -160 14 -169 9 -8 48 -11
112 -9 l99 3 0 170 0 170 -106 3 c-58 1 -108 -1 -112 -4z m161 -176 l-3 -123
-60 0 -60 0 -3 123 -3 122 66 0 66 0 -3 -122z"/>
<path d="M1384 1967 c-2 -7 -3 -85 -2 -172 l3 -160 105 0 105 0 3 173 2 172
-105 0 c-77 0 -107 -3 -111 -13z m167 -54 c6 -64 4 -221 -4 -230 -6 -8 -33
-13 -68 -13 l-59 0 0 125 0 125 65 0 c36 0 65 -3 66 -7z"/>
<path d="M1067 1504 c-4 -4 -7 -79 -7 -166 0 -155 0 -159 23 -166 17 -6 102
-7 200 -2 4 0 6 75 5 168 l-3 167 -106 3 c-58 1 -108 -1 -112 -4z m161 -158
c2 -78 -1 -123 -9 -132 -17 -20 -105 -19 -113 2 -8 22 -8 239 1 248 4 4 32 6
63 4 l55 -3 3 -119z"/>
<path d="M1380 1341 l0 -169 38 -3 c20 -2 70 -3 110 -1 l72 4 0 169 0 169
-110 0 -110 0 0 -169z m165 119 c10 -17 14 -203 4 -227 -11 -31 -30 -37 -84
-29 l-45 7 0 130 0 129 59 0 c33 0 63 -5 66 -10z"/>
<path d="M1385 1037 c-3 -7 -4 -85 -3 -172 l3 -160 105 0 105 0 0 170 0 170
-103 3 c-78 2 -104 0 -107 -11z m163 -44 c5 -10 9 -64 8 -121 -2 -119 -5 -124
-81 -120 l-50 3 -3 114 c-1 63 0 121 2 128 8 21 113 17 124 -4z"/>
</g>
</svg>
