<?xml version="1.0" standalone="no"?>
<!DOCTYPE svg PUBLIC "-//W3C//DTD SVG 20010904//EN"
 "http://www.w3.org/TR/2001/REC-SVG-20010904/DTD/svg10.dtd">
<svg version="1.0" xmlns="http://www.w3.org/2000/svg"
 width="246.000000pt" height="242.000000pt" viewBox="0 0 246.000000 242.000000"
 preserveAspectRatio="xMidYMid meet">

<g transform="translate(0.000000,242.000000) scale(0.100000,-0.100000)"
fill="#f2f2f2" stroke="none">
<path d="M944 2359 c-3 -6 -8 -54 -9 -106 -2 -52 -7 -99 -11 -103 -5 -5 -45
-10 -89 -12 l-80 -3 -3 -47 c-2 -25 -9 -51 -15 -57 -7 -5 -53 -17 -102 -26
-50 -8 -115 -20 -145 -26 -30 -6 -82 -15 -115 -20 -36 -6 -65 -16 -73 -26 -9
-13 -12 -108 -12 -394 0 -230 -4 -380 -10 -384 -5 -3 -26 1 -47 10 -34 15 -41
15 -80 0 -36 -14 -44 -22 -53 -56 -17 -63 0 -100 73 -157 34 -26 75 -56 90
-66 16 -10 46 -33 68 -53 l39 -35 0 -163 c0 -133 3 -165 15 -175 13 -11 15
-39 13 -174 l-3 -161 -160 -5 -160 -5 0 -30 0 -30 1153 -3 1153 -2 -3 32 -3
33 -144 3 c-86 1 -150 7 -158 14 -20 16 -18 293 2 332 11 21 15 65 15 180 l0
152 29 32 c17 17 34 32 40 32 5 0 25 14 43 31 18 16 54 44 80 61 32 21 55 46
69 76 l22 44 -21 43 c-17 35 -27 44 -60 52 -22 6 -46 7 -53 3 -8 -5 -27 -10
-44 -12 l-30 -3 -5 392 c-3 215 -8 394 -12 398 -4 4 -38 11 -76 15 -39 4 -75
11 -81 15 -7 3 -55 12 -109 19 -53 7 -114 20 -134 29 -32 14 -38 21 -38 47 0
58 -14 70 -80 70 -90 0 -90 0 -90 91 0 66 -4 85 -22 109 l-22 30 -272 0 c-187
0 -275 -3 -280 -11z m516 -139 c0 -64 -2 -70 -22 -75 -13 -3 -113 -4 -223 -3
l-200 3 -3 59 c-2 32 -1 65 2 72 4 11 49 14 226 14 l220 0 0 -70z m164 -163
c15 -11 17 -36 14 -294 l-3 -281 -25 -34 c-23 -30 -25 -42 -25 -134 l0 -101
40 -41 c78 -83 165 -103 253 -60 105 50 156 151 130 254 -12 49 -70 134 -90
134 -6 0 -20 8 -31 18 -13 12 -42 19 -96 22 l-76 5 -3 175 c-3 220 -3 224 46
216 20 -3 73 -10 117 -16 44 -6 109 -18 145 -28 l65 -18 3 -385 c2 -378 2
-387 -19 -413 l-20 -26 -243 0 -242 0 -34 35 -34 35 -262 0 -261 0 -46 -35
-46 -35 -233 0 c-213 1 -235 2 -256 20 l-22 18 2 394 3 393 85 22 c47 12 106
22 131 22 26 1 66 8 90 16 66 24 69 16 69 -201 0 -104 -4 -185 -9 -189 -6 -3
-44 -7 -86 -9 -71 -3 -78 -6 -121 -42 -63 -54 -94 -114 -94 -185 0 -41 5 -63
20 -82 11 -14 20 -29 20 -34 0 -14 61 -66 102 -87 77 -39 178 -15 244 56 35
38 79 141 71 166 -25 74 -46 122 -60 136 -15 16 -17 48 -17 300 0 206 3 285
12 294 18 18 767 17 792 -1z m-871 -623 c54 -45 88 -140 57 -159 -6 -4 -16
-21 -24 -38 -18 -43 -93 -82 -138 -71 -39 8 -75 30 -105 64 -18 20 -22 37 -23
85 0 56 2 61 42 102 40 41 45 43 101 43 49 0 64 -4 90 -26z m1128 0 c30 -20
40 -36 49 -74 20 -85 -5 -140 -82 -180 -49 -25 -79 -22 -137 15 -32 20 -43 35
-55 76 -20 65 -6 118 42 160 28 25 41 29 89 29 45 0 65 -5 94 -26z m-1621
-369 c30 -19 60 -38 65 -42 59 -48 60 -48 300 -53 l230 -5 3 -175 c2 -153 5
-177 21 -195 10 -11 24 -30 30 -42 l12 -23 -234 0 -235 0 -6 23 c-3 12 -6 82
-6 154 l0 133 -29 27 c-16 16 -39 35 -51 43 -54 37 -185 142 -188 151 -4 10
16 39 27 39 4 0 31 -16 61 -35z m2027 8 c7 -17 1 -23 -129 -123 -43 -33 -82
-60 -87 -60 -5 0 -19 -13 -30 -29 -19 -26 -21 -44 -21 -154 0 -69 -4 -137 -10
-151 l-10 -26 -230 0 -231 0 7 22 c4 13 13 28 21 33 26 19 37 89 38 230 0 81
4 143 10 147 6 4 110 8 233 8 186 0 224 2 228 15 3 8 16 17 27 21 12 3 40 21
62 39 60 48 110 60 122 28z m-1159 -32 c10 -6 11 -28 2 -113 -12 -124 -5 -150
67 -227 18 -20 24 -21 45 -11 31 16 54 45 83 106 24 49 24 53 10 88 -10 24
-15 60 -13 99 l3 62 67 3 c61 3 71 0 93 -22 14 -14 25 -34 25 -44 0 -11 7 -22
15 -26 23 -8 18 -281 -5 -281 -13 0 -15 22 -15 142 l0 143 -28 6 c-53 11 -58
-2 -56 -179 1 -144 -1 -162 -17 -174 -24 -18 -324 -19 -342 -1 -8 8 -12 61
-12 173 0 112 -4 165 -12 173 -17 17 -55 15 -62 -4 -3 -9 -6 -85 -6 -171 0
-119 -3 -154 -12 -151 -10 4 -14 52 -16 185 l-2 181 31 26 c25 21 41 26 87 26
31 0 63 -4 70 -9z m125 -120 l21 -84 -23 -19 c-36 -28 -51 -8 -51 67 0 77 9
127 23 122 5 -1 19 -41 30 -86z m-40 -411 c-1 -8 -11 -40 -21 -70 -11 -31 -23
-80 -27 -110 -4 -30 -13 -77 -20 -105 -7 -27 -16 -62 -19 -77 -5 -23 -12 -28
-36 -28 -16 0 -32 5 -35 10 -12 19 -5 373 7 387 17 20 154 14 151 -7z m191 7
c17 -12 18 -30 17 -196 0 -100 -3 -187 -6 -192 -9 -13 -71 -11 -82 4 -6 6 -13
42 -16 79 -4 37 -13 81 -22 97 -8 17 -15 55 -15 85 0 44 -5 60 -25 84 -14 17
-25 35 -25 41 0 16 151 14 174 -2z m-549 -89 c3 -13 4 -86 3 -163 l-3 -140
-32 -3 c-56 -5 -73 11 -73 71 0 35 -7 62 -20 82 -12 18 -20 47 -20 73 0 36 -4
44 -26 54 -22 11 -28 10 -40 -7 -8 -10 -14 -25 -14 -32 0 -8 -6 -24 -14 -36
-7 -12 -16 -48 -19 -81 -3 -32 -13 -66 -21 -75 -9 -10 -16 -23 -16 -29 0 -20
-38 -34 -60 -22 -19 10 -20 21 -20 155 0 79 3 150 6 159 5 14 31 16 185 16
177 0 179 0 184 -22z m1113 10 c17 -17 17 -289 0 -306 -16 -16 -68 -15 -72 1
-2 6 -12 37 -21 66 -9 30 -21 80 -26 110 -6 38 -17 63 -34 81 l-26 25 -23 -26
c-14 -16 -25 -45 -29 -75 -3 -27 -13 -62 -21 -79 -9 -16 -16 -42 -16 -57 0
-43 -10 -58 -39 -58 -47 0 -51 13 -51 165 0 96 4 145 12 153 17 17 329 17 346
0z m-998 -153 c0 -131 -2 -155 -15 -155 -13 0 -15 24 -15 155 0 131 2 155 15
155 13 0 15 -24 15 -155z m568 5 c2 -92 -1 -147 -8 -154 -21 -21 -30 19 -30
146 0 131 5 161 24 155 7 -2 12 -52 14 -147z m-295 -117 c6 -33 -1 -53 -18
-53 -20 0 -27 33 -15 64 12 32 26 27 33 -11z m567 -23 c0 -19 -5 -30 -14 -30
-20 0 -29 16 -21 40 10 32 35 25 35 -10z m-1140 -5 c0 -16 -6 -25 -15 -25 -9
0 -15 9 -15 25 0 16 6 25 15 25 9 0 15 -9 15 -25z"/>
<path d="M898 1973 c-9 -38 2 -54 35 -51 28 3 32 7 32 33 0 26 -4 30 -31 33
-24 2 -32 -1 -36 -15z"/>
<path d="M1046 1972 c-11 -34 4 -53 38 -50 27 3 31 7 31 33 0 26 -4 30 -32 33
-24 2 -33 -1 -37 -16z"/>
<path d="M1354 1976 c-12 -31 1 -51 32 -54 34 -3 49 16 39 49 -8 23 -63 26
-71 5z"/>
<path d="M1504 1976 c-12 -31 0 -51 31 -51 27 0 30 3 30 30 0 25 -4 30 -28 33
-17 2 -29 -2 -33 -12z"/>
<path d="M447 1834 c-13 -14 -7 -53 11 -62 10 -6 27 -6 40 -1 18 7 23 15 20
36 -2 23 -9 29 -33 31 -17 2 -34 0 -38 -4z"/>
<path d="M595 1821 c-7 -25 3 -49 25 -56 32 -10 50 5 50 41 0 32 -2 34 -34 34
-25 0 -36 -5 -41 -19z"/>
<path d="M898 1823 c-9 -38 2 -54 35 -51 28 3 32 7 32 33 0 26 -4 30 -31 33
-24 2 -32 -1 -36 -15z"/>
<path d="M1046 1822 c-11 -34 4 -53 38 -50 27 3 31 7 31 33 0 26 -4 30 -32 33
-24 2 -33 -1 -37 -16z"/>
<path d="M1354 1826 c-12 -31 1 -51 33 -54 25 -2 33 1 38 18 4 12 1 27 -5 35
-16 19 -59 19 -66 1z"/>
<path d="M1504 1826 c-12 -31 0 -51 31 -51 27 0 30 3 30 30 0 25 -4 30 -28 33
-17 2 -29 -2 -33 -12z"/>
<path d="M1789 1824 c-17 -21 0 -48 34 -52 32 -4 56 31 36 54 -15 19 -53 18
-70 -2z"/>
<path d="M1952 1831 c-8 -4 -12 -19 -10 -32 2 -20 9 -24 38 -24 29 0 36 4 38
24 4 24 -11 41 -38 41 -8 0 -21 -4 -28 -9z"/>
<path d="M447 1684 c-4 -4 -7 -20 -7 -35 0 -31 26 -45 61 -34 16 5 19 14 17
38 -3 27 -7 32 -33 35 -17 2 -34 0 -38 -4z"/>
<path d="M595 1671 c-10 -32 12 -63 43 -59 24 3 27 7 27 38 0 32 -3 35 -32 38
-24 2 -33 -1 -38 -17z"/>
<path d="M1790 1675 c-31 -37 32 -87 67 -52 14 13 14 21 5 42 -13 28 -52 34
-72 10z"/>
<path d="M1950 1675 c-26 -32 13 -81 48 -59 21 14 28 54 10 65 -20 13 -44 11
-58 -6z"/>
<path d="M1082 1552 c-67 -65 -77 -92 -70 -191 4 -51 10 -66 42 -106 41 -50
125 -95 178 -95 66 0 198 93 198 140 0 8 7 28 15 44 19 35 19 64 0 96 -8 14
-14 35 -15 47 0 24 -62 93 -84 93 -7 0 -19 7 -26 15 -9 11 -34 15 -95 15 l-83
0 -60 -58z m240 -43 c13 -13 35 -46 48 -73 l23 -49 -25 -46 c-32 -56 -91 -100
-136 -101 -40 0 -95 29 -124 65 -16 21 -21 41 -21 88 0 59 1 61 47 105 47 44
48 45 105 39 42 -3 64 -11 83 -28z"/>
</g>
</svg>
