<?xml version="1.0" standalone="no"?>
<!DOCTYPE svg PUBLIC "-//W3C//DTD SVG 20010904//EN"
 "http://www.w3.org/TR/2001/REC-SVG-20010904/DTD/svg10.dtd">
<svg version="1.0" xmlns="http://www.w3.org/2000/svg"
 width="265.000000pt" height="253.000000pt" viewBox="0 0 265.000000 253.000000"
 preserveAspectRatio="xMidYMid meet">

<g transform="translate(0.000000,253.000000) scale(0.100000,-0.100000)"
fill="#f2f2f2" stroke="none">
<path d="M746 2409 c-2 -8 -8 -32 -12 -54 l-9 -40 -92 -3 c-85 -3 -91 -4 -97
-25 -3 -13 -3 -33 0 -45 11 -39 -4 -72 -32 -72 -56 0 -64 -13 -64 -109 0 -95
-3 -101 -56 -101 l-24 0 0 -909 c0 -500 -3 -916 -6 -925 -5 -13 -27 -16 -134
-16 -108 0 -129 -3 -134 -16 -3 -9 -4 -20 0 -25 3 -5 511 -9 1245 -9 1127 0
1240 1 1246 16 10 27 -17 34 -134 34 -62 0 -114 1 -115 3 -1 1 -5 198 -8 437
l-5 435 -265 5 c-146 3 -266 7 -267 8 -2 1 -3 101 -3 221 0 121 -4 222 -9 225
-5 4 -16 3 -25 0 -14 -5 -16 -34 -16 -220 0 -204 -1 -214 -20 -224 -11 -6 -25
-8 -30 -5 -6 4 -10 93 -10 226 0 194 -2 220 -16 226 -9 3 -24 2 -33 -4 -14 -9
-17 -42 -21 -229 -5 -213 -6 -219 -26 -222 -39 -6 -43 15 -46 239 -3 182 -5
214 -18 214 -13 0 -15 -32 -18 -217 -2 -198 -4 -218 -21 -227 -10 -6 -27 -7
-39 -4 -22 5 -22 8 -22 218 0 174 -3 215 -15 225 -31 26 -35 0 -35 -214 0
-226 -3 -243 -47 -234 -17 3 -18 22 -23 227 -3 136 -9 226 -15 228 -5 1 -16
-1 -23 -6 -11 -7 -14 -53 -13 -219 0 -198 -1 -212 -19 -222 -10 -6 -94 -10
-193 -10 -150 0 -176 -2 -181 -16 -3 -9 -6 -207 -6 -440 l0 -425 -27 3 -28 3
-2 130 c-3 148 -7 175 -28 175 -13 0 -15 -22 -15 -132 0 -190 6 -179 -104
-176 l-91 3 -3 197 -2 197 112 3 c99 3 113 5 116 21 3 16 -7 17 -135 15 l-138
-3 -5 -209 c-4 -185 -7 -210 -23 -220 -12 -8 -22 -8 -35 0 -16 10 -17 65 -20
889 -1 640 1 881 9 891 9 11 74 14 334 14 301 0 323 -1 339 -19 15 -16 16 -57
16 -416 -1 -409 1 -433 37 -403 10 8 13 65 13 239 l0 229 23 1 c196 5 636 3
650 -3 15 -8 17 -30 17 -238 l0 -230 30 0 30 0 -2 258 -3 257 -52 5 c-29 3
-57 10 -62 15 -6 6 -11 48 -13 95 l-3 85 -259 3 c-194 2 -262 -1 -273 -10 -12
-10 -14 -28 -10 -81 5 -79 -12 -115 -51 -103 -21 7 -22 13 -24 184 l-3 177
-35 5 -35 5 -5 92 c-3 50 -8 95 -12 99 -5 4 -25 10 -45 13 l-38 6 -5 65 -5 65
-65 2 c-36 2 -80 5 -97 8 -31 5 -33 9 -33 44 0 40 -26 77 -34 50z m165 -178
c13 -61 12 -61 -157 -61 l-154 0 0 44 c0 26 5 46 13 50 6 2 75 4 152 3 l139
-2 7 -34z m107 -198 c3 -58 1 -63 -20 -68 -13 -3 -129 -4 -258 -3 l-235 3 -3
68 -3 67 258 -2 258 -3 3 -62z m700 -295 c7 -7 12 -36 12 -64 0 -84 0 -84
-224 -84 -136 0 -195 3 -204 12 -12 12 -17 104 -6 132 5 14 33 16 208 16 144
0 205 -3 214 -12z m540 -1198 c1 -212 0 -395 -3 -408 l-5 -22 -664 0 c-596 0
-664 2 -670 16 -8 22 -8 789 1 797 3 4 306 6 672 5 l666 -3 3 -385z"/>
<path d="M954 886 c-10 -26 1 -51 24 -54 30 -4 48 37 24 56 -21 16 -41 15 -48
-2z"/>
<path d="M2161 886 c-18 -22 4 -58 32 -54 31 4 32 62 1 66 -11 2 -26 -4 -33
-12z"/>
<path d="M1505 821 c-11 -5 -34 -22 -50 -38 -58 -58 -65 -73 -65 -147 l0 -70
55 -53 c62 -61 88 -73 150 -73 35 0 52 7 92 39 79 63 87 75 91 145 4 55 1 70
-22 108 -41 70 -78 92 -161 95 -38 2 -79 -1 -90 -6z m152 -61 c34 -20 73 -85
73 -119 0 -56 -58 -131 -102 -131 -33 0 -36 13 -8 37 13 12 20 30 20 53 0 40
-14 60 -42 60 -10 0 -18 5 -18 10 0 6 11 10 24 10 14 0 28 4 31 10 7 12 -34
70 -50 70 -17 0 -55 -56 -55 -82 0 -51 11 -68 42 -68 19 0 28 -4 25 -12 -2 -7
-16 -12 -30 -10 -35 4 -43 -15 -18 -42 28 -30 27 -36 -7 -36 -45 0 -102 75
-102 133 0 34 41 98 75 118 41 24 103 23 142 -1z"/>
<path d="M1103 653 c-7 -2 -13 -11 -13 -19 0 -11 22 -14 115 -14 108 0 115 1
115 20 0 19 -6 20 -102 19 -57 0 -109 -3 -115 -6z"/>
<path d="M1850 641 c0 -26 4 -26 125 -23 79 3 105 7 105 17 0 20 -24 25 -131
25 -91 0 -99 -2 -99 -19z"/>
<path d="M1232 384 c-9 -6 -13 -18 -9 -28 6 -14 41 -16 362 -16 314 0 356 2
362 16 14 37 -8 39 -359 39 -233 0 -346 -3 -356 -11z"/>
<path d="M1224 285 c-4 -8 -4 -22 0 -30 5 -13 51 -15 363 -13 l358 3 0 25 0
25 -358 3 c-312 2 -358 0 -363 -13z"/>
<path d="M957 213 c-10 -9 -8 -45 2 -61 7 -12 12 -12 29 -1 25 16 33 31 24 46
-9 14 -47 25 -55 16z"/>
<path d="M2180 212 c-23 -8 -30 -24 -19 -45 15 -28 53 -18 57 14 3 28 -12 40
-38 31z"/>
<path d="M2054 2336 c-12 -30 7 -36 122 -36 114 0 115 0 112 23 -3 21 -7 22
-116 25 -92 2 -113 0 -118 -12z"/>
<path d="M1397 2196 c-3 -8 0 -22 7 -31 10 -15 27 -16 120 -13 110 5 138 16
114 45 -16 19 -234 18 -241 -1z"/>
<path d="M1761 2001 c-8 -5 -11 -16 -8 -25 6 -14 25 -16 149 -14 135 3 143 4
143 23 0 19 -8 20 -135 23 -74 1 -141 -2 -149 -7z"/>
<path d="M497 1784 c-4 -4 -7 -34 -7 -66 0 -54 2 -59 27 -69 33 -12 461 -11
486 3 15 8 17 20 15 71 -2 47 -7 62 -18 62 -9 0 -16 -11 -18 -25 -8 -76 11
-70 -215 -70 -111 0 -207 4 -214 8 -6 4 -13 25 -15 47 -3 38 -23 57 -41 39z"/>
<path d="M503 1543 c-17 -6 -18 -134 -1 -151 19 -19 491 -17 507 2 18 22 10
151 -9 151 -11 0 -16 -13 -18 -47 l-3 -48 -220 0 -219 0 0 39 c0 40 -15 62
-37 54z"/>
<path d="M497 1283 c-4 -3 -7 -37 -7 -74 0 -52 4 -68 16 -73 24 -9 487 -7 502
3 20 12 12 146 -8 146 -10 0 -17 -13 -20 -40 l-5 -40 -215 0 c-207 0 -215 1
-218 20 -7 50 -13 65 -26 65 -7 0 -16 -3 -19 -7z"/>
<path d="M492 963 l3 -68 138 -3 138 -3 -3 23 c-3 22 -8 23 -113 28 l-110 5
-5 40 c-4 32 -9 41 -28 43 -22 3 -23 1 -20 -65z"/>
<path d="M497 784 c-12 -12 -8 -129 5 -142 14 -14 235 -17 256 -3 8 5 12 17
10 27 -3 17 -15 19 -115 22 l-112 3 -3 47 c-2 33 -8 48 -18 50 -9 1 -19 0 -23
-4z"/>
</g>
</svg>
