<svg version="1.1" id="Layer_1" xmlns="http://www.w3.org/2000/svg" xmlns:xlink="http://www.w3.org/1999/xlink" x="0px" y="0px"
	 width="100%" viewBox="0 0 640 640" enable-background="new 0 0 640 640" xml:space="preserve">
<path fill="#f2f2f2" opacity="1.000000" stroke="none" 
	d="
M380.968353,454.522644 
	C378.811890,449.156799 379.760529,443.925812 379.735138,438.806396 
	C379.717987,435.347321 378.514374,434.116974 375.065247,434.122955 
	C339.069885,434.185333 303.074188,434.181366 267.078949,434.075165 
	C263.314117,434.064056 261.984406,435.494629 262.276031,439.107147 
	C262.476501,441.590881 262.334137,444.103577 262.319244,446.603149 
	C262.257935,456.887848 256.957031,463.202362 246.839462,464.820648 
	C242.545929,465.507355 238.168503,465.473969 233.885040,464.844238 
	C224.081482,463.402954 218.743790,457.003754 218.658752,446.968536 
	C218.653107,446.302002 218.673584,445.634888 218.653809,444.968903 
	C218.560059,441.811432 219.204651,438.377930 218.166458,435.567169 
	C216.880722,432.086334 212.588928,433.499359 209.728836,432.411316 
	C199.483627,428.513916 192.704636,419.043915 192.689850,407.712769 
	C192.650482,377.549866 192.591934,347.386414 192.767319,317.224457 
	C192.793671,312.695343 191.577469,310.667603 186.881851,311.263763 
	C185.607941,311.425507 184.128540,311.260162 182.960526,310.748962 
	C176.696762,308.007324 171.401169,303.457611 164.577087,301.572601 
	C161.804794,300.806854 160.663528,297.247589 160.666977,294.005188 
	C160.679504,282.173370 160.606445,270.340942 160.708023,258.509979 
	C160.752350,253.347290 163.952332,249.807419 169.063553,248.850555 
	C170.202576,248.637299 171.836823,249.111481 172.474304,248.485855 
	C177.703751,243.353561 183.949280,241.014709 191.184341,240.486313 
	C193.149597,240.342789 192.642075,237.768509 192.649292,236.179138 
	C192.695419,226.013916 192.675201,215.848419 192.680588,205.682999 
	C192.690186,187.544754 203.347305,176.901215 221.624130,176.882797 
	C252.620270,176.851532 283.616455,176.872330 314.612610,176.871887 
	C349.774963,176.871399 384.937286,176.876251 420.099640,176.868713 
	C430.951355,176.866379 440.066193,180.248291 445.853546,190.074799 
	C448.272064,194.181259 449.318054,198.679932 449.322662,203.427338 
	C449.333160,214.259338 449.434875,225.092804 449.278198,235.922485 
	C449.227325,239.440170 450.210114,241.084381 454.005157,241.159821 
	C459.312012,241.265289 464.225922,242.695190 467.558868,247.369217 
	C468.571167,248.788834 470.178802,248.534103 471.658112,248.711563 
	C478.013336,249.473938 481.275879,252.942215 481.318726,259.235931 
	C481.397003,270.733948 481.400146,282.233368 481.313080,293.731293 
	C481.270874,299.304138 478.759094,302.408966 473.251099,303.489899 
	C470.040710,304.119934 467.363617,305.177795 465.031281,307.634827 
	C462.678986,310.112976 459.416046,311.083191 455.966461,311.293732 
	C449.337189,311.698425 449.324799,311.723022 449.323975,318.485657 
	C449.320526,347.315460 449.324738,376.145233 449.328674,404.975037 
	C449.330902,421.371643 442.634338,429.828461 426.635193,433.398346 
	C424.194061,433.943024 423.312012,435.212738 423.346161,437.555389 
	C423.399536,441.220642 423.414673,444.889221 423.322449,448.553284 
	C423.120331,456.585266 417.968018,462.787811 410.016296,464.401306 
	C403.572388,465.708862 397.059570,465.805298 390.755188,463.797607 
	C386.288513,462.375153 383.065155,459.238922 380.968353,454.522644 
M317.500031,205.271530 
	C285.009216,205.007660 252.695358,207.552826 220.448151,211.269165 
	C217.555771,211.602524 216.261063,212.648514 216.329437,215.599396 
	C216.433594,220.094238 216.336090,224.593597 216.336395,229.091049 
	C216.338211,255.742722 216.337845,282.394409 216.351334,309.046082 
	C216.355225,316.731537 217.163116,317.750793 224.880051,319.141815 
	C227.484406,319.611237 230.178909,319.554260 232.814148,319.882751 
	C256.605194,322.848114 280.519836,324.163635 304.460999,324.578247 
	C322.925751,324.898071 341.399048,324.891144 359.876740,323.816864 
	C379.631439,322.668365 399.336853,321.216980 418.970367,318.748596 
	C423.400238,318.191650 425.587708,315.697418 425.596283,311.476257 
	C425.661377,279.494415 425.624847,247.512390 425.657898,215.530472 
	C425.660522,212.966919 424.902405,211.550964 422.035645,211.307724 
	C416.745758,210.858917 411.498474,209.914810 406.209564,209.446579 
	C377.031281,206.863403 347.829620,204.703217 317.500031,205.271530 
M234.687546,370.153625 
	C227.517563,376.679932 224.175644,384.538116 226.360413,394.281891 
	C228.909470,405.650299 240.831818,414.730225 251.652771,413.580444 
	C264.421478,412.223694 274.525757,401.644318 274.648499,389.370117 
	C274.745880,379.628540 270.132355,372.362122 261.901947,367.692291 
	C252.764191,362.507629 243.709198,363.435242 234.687546,370.153625 
M390.757782,413.604156 
	C407.338165,413.082397 419.167297,398.686249 415.524506,383.462769 
	C412.227722,369.685181 397.499786,361.307800 384.241089,365.668549 
	C370.653839,370.137421 363.571564,385.299774 369.227203,398.280579 
	C373.141571,407.264923 380.396362,412.028137 390.757782,413.604156 
M305.500092,191.362823 
	C296.837891,191.359497 288.172913,191.236526 279.515533,191.438965 
	C277.411957,191.488159 273.511719,189.805969 273.668518,193.775360 
	C273.807129,197.285583 277.568146,196.022690 279.781250,196.029755 
	C307.266754,196.117371 334.752625,196.080048 362.238434,196.058319 
	C363.733124,196.057144 365.239868,196.000000 366.718231,195.800293 
	C367.797150,195.654526 368.484802,194.897537 368.534546,193.747589 
	C368.595795,192.330917 367.824188,191.561966 366.465363,191.458542 
	C365.138947,191.357544 363.802979,191.354828 362.471222,191.354736 
	C343.814178,191.353378 325.157166,191.359848 305.500092,191.362823 
M188.531097,247.038864 
	C186.579742,247.093002 184.551361,246.744324 182.157623,248.559052 
	C190.176239,251.014633 190.642990,257.054962 190.412384,263.742096 
	C190.131973,271.873322 190.214645,280.025970 190.419891,288.162292 
	C190.587967,294.825043 190.796036,301.314362 182.187119,304.000122 
	C189.205948,307.094055 192.565231,306.236145 192.597565,301.809448 
	C192.721375,284.863312 192.639023,267.915741 192.674957,250.968765 
	C192.679932,248.623245 191.987305,247.067596 188.531097,247.038864 
M449.412262,261.508606 
	C449.387848,273.990906 449.369415,286.473267 449.336792,298.955536 
	C449.317566,306.296478 451.846069,307.724609 459.268341,303.890869 
	C452.434052,301.519012 451.357056,296.361542 451.550568,290.260742 
	C451.793182,282.613159 451.815247,274.940918 451.491364,267.298035 
	C451.173676,259.802826 449.417267,252.019745 459.918274,248.350403 
	C450.509918,245.653900 449.269714,246.559952 449.338135,254.523422 
	C449.355286,256.520447 449.391907,258.517303 449.412262,261.508606 
z"/>
</svg>